<?xml version="1.0" standalone="no"?>
<!DOCTYPE svg PUBLIC "-//W3C//DTD SVG 20010904//EN"
 "http://www.w3.org/TR/2001/REC-SVG-20010904/DTD/svg10.dtd">
<svg version="1.0" xmlns="http://www.w3.org/2000/svg"
 width="1024.000000pt" height="1024.000000pt" viewBox="0 0 1024.000000 1024.000000"
 preserveAspectRatio="xMidYMid meet">
<metadata>
Created by potrace 1.14, written by Peter Selinger 2001-2017
</metadata>
<g transform="translate(0.000000,1024.000000) scale(0.100000,-0.100000)"
fill="#000000" stroke="none">
<path d="M1090 8916 c-150 -31 -267 -142 -306 -291 -20 -74 -20 -1497 -1
-1570 41 -150 164 -267 310 -294 26 -5 456 -8 954 -8 821 0 912 2 963 17 134
41 241 150 276 282 20 78 20 1498 0 1576 -38 141 -155 253 -302 287 -70 17
-1814 17 -1894 1z"/>
<path d="M4153 8914 c-60 -15 -134 -55 -180 -97 -50 -46 -102 -138 -116 -206
-9 -43 -12 -254 -11 -787 1 -808 -2 -779 67 -887 56 -87 143 -149 242 -172 62
-15 1818 -18 1909 -4 145 23 276 145 317 294 11 40 13 194 13 790 0 689 -1
744 -18 795 -26 77 -51 118 -110 173 -56 54 -129 93 -200 106 -26 5 -455 8
-954 8 -711 0 -919 -3 -959 -13z"/>
<path d="M7253 8914 c-147 -38 -256 -142 -299 -283 -11 -37 -14 -189 -14 -781
0 -797 0 -802 55 -896 32 -54 104 -124 157 -152 92 -50 93 -50 1079 -48 916 1
924 2 976 23 137 55 228 167 259 318 2 11 4 349 4 750 0 779 0 778 -50 873
-48 90 -156 172 -262 198 -75 18 -1835 16 -1905 -2z"/>
<path d="M1055 6186 c-84 -29 -116 -49 -168 -101 -49 -49 -103 -147 -111 -205
-3 -19 -6 -363 -6 -765 0 -776 0 -777 48 -872 48 -94 168 -182 275 -202 61
-11 1805 -12 1876 0 144 22 278 146 317 291 11 43 14 192 14 794 0 725 -1 742
-21 803 -46 134 -155 234 -296 267 -39 9 -275 12 -960 11 -896 0 -909 0 -968
-21z"/>
<path d="M4195 6204 c-103 -28 -131 -40 -184 -79 -69 -51 -123 -126 -148 -205
-15 -50 -17 -128 -17 -795 0 -786 0 -786 47 -879 28 -53 114 -139 167 -166 91
-47 95 -47 1045 -47 497 -1 926 3 958 8 158 25 300 169 324 329 5 30 8 379 8
775 -2 798 0 771 -68 877 -56 88 -160 158 -264 177 -39 8 -1842 12 -1868 5z"/>
<path d="M7255 6195 c-138 -32 -249 -132 -294 -266 -20 -60 -20 -78 -21 -803
0 -603 3 -751 14 -794 37 -139 154 -253 293 -286 87 -20 1843 -20 1923 1 139
35 248 145 287 288 10 40 13 199 13 780 0 402 -2 739 -4 750 -20 98 -51 159
-112 219 -55 56 -129 96 -202 112 -75 16 -1827 15 -1897 -1z"/>
<path d="M1055 3466 c-84 -30 -116 -49 -169 -102 -53 -52 -91 -120 -106 -189
-10 -45 -15 -1472 -6 -1520 19 -95 51 -159 109 -217 57 -58 139 -104 205 -116
32 -6 422 -10 960 -9 822 0 910 1 961 17 134 40 235 143 275 279 14 47 16 150
16 792 0 710 -1 740 -20 803 -42 135 -154 238 -296 271 -37 9 -289 12 -960 12
-898 0 -910 0 -969 -21z"/>
<path d="M4142 3470 c-147 -41 -267 -173 -289 -321 -5 -30 -8 -378 -8 -774 2
-802 -1 -773 71 -880 58 -89 141 -147 239 -170 59 -14 1817 -18 1904 -4 163
25 304 167 328 329 5 30 8 381 7 780 -1 666 -2 729 -19 775 -50 141 -172 248
-311 274 -25 5 -453 8 -952 8 -829 0 -912 -1 -970 -17z"/>
<path d="M7253 3474 c-147 -38 -256 -141 -299 -283 -11 -37 -14 -186 -13 -791
0 -710 1 -748 20 -807 30 -94 102 -181 192 -232 85 -48 95 -48 1050 -48 494 0
919 4 945 9 105 19 210 94 266 191 56 95 56 90 56 883 1 482 -3 747 -10 778
-33 146 -154 265 -306 301 -77 19 -1829 17 -1901 -1z"/>
</g>
</svg>
